<?xml version="1.0" encoding="UTF-8"?>
<!DOCTYPE svg PUBLIC "-//W3C//DTD SVG 1.1//EN" "http://www.w3.org/Graphics/SVG/1.1/DTD/svg11.dtd">
<svg xmlns="http://www.w3.org/2000/svg" version="1.1" width="46px" height="50px" style="shape-rendering:geometricPrecision; text-rendering:geometricPrecision; image-rendering:optimizeQuality; fill-rule:evenodd; clip-rule:evenodd" xmlns:xlink="http://www.w3.org/1999/xlink">
<g><path style="opacity:1" fill="#c29b51" d="M 17.5,2.5 C 20.8903,3.32422 24.2236,3.65755 27.5,3.5C 26.7515,5.33246 25.7515,6.99913 24.5,8.5C 22.5575,8.53527 20.5575,8.20193 18.5,7.5C 16.9902,8.72793 15.4902,8.72793 14,7.5C 13.6667,8.16667 13.3333,8.83333 13,9.5C 11.13,7.59474 9.63003,5.42807 8.5,3C 9.1079,2.13008 9.94123,1.63008 11,1.5C 12.1357,2.78271 13.469,3.78271 15,4.5C 16.301,4.36126 17.1344,3.69459 17.5,2.5 Z"/></g>
<g><path style="opacity:1" fill="#19233c" d="M 9.5,-0.5 C 10.5,-0.5 11.5,-0.5 12.5,-0.5C 13.1667,0.833333 13.8333,0.833333 14.5,-0.5C 15.5,-0.5 16.5,-0.5 17.5,-0.5C 16.9094,0.151487 16.2427,0.818153 15.5,1.5C 16.2003,1.78715 16.8669,2.12048 17.5,2.5C 17.1344,3.69459 16.301,4.36126 15,4.5C 13.469,3.78271 12.1357,2.78271 11,1.5C 9.94123,1.63008 9.1079,2.13008 8.5,3C 9.63003,5.42807 11.13,7.59474 13,9.5C 13.3333,8.83333 13.6667,8.16667 14,7.5C 15.4902,8.72793 16.9902,8.72793 18.5,7.5C 18.4142,8.4959 18.7476,9.32924 19.5,10C 17.5,10.3333 15.5,10.6667 13.5,11C 16.0356,11.1862 18.369,11.6862 20.5,12.5C 20.6621,14.5273 20.4955,16.5273 20,18.5C 19.5172,17.552 19.3505,16.552 19.5,15.5C 19.0919,14.3569 18.4252,13.3569 17.5,12.5C 16,14.8333 14.5,17.1667 13,19.5C 12.8595,17.7445 13.3595,16.0778 14.5,14.5C 14.3333,14.1667 14.1667,13.8333 14,13.5C 13.0853,14.3279 12.4186,15.3279 12,16.5C 11.6667,15.8333 11.3333,15.1667 11,14.5C 5.57946,20.7313 3.9128,27.7313 6,35.5C 7.90865,38.4139 10.5753,40.0806 14,40.5C 15.3756,40.3158 16.2089,39.6491 16.5,38.5C 17.1667,38.5 17.8333,38.5 18.5,38.5C 18.8333,39.1667 19.1667,39.8333 19.5,40.5C 22.322,43.0206 22.9887,42.3539 21.5,38.5C 22.404,37.791 22.7373,36.791 22.5,35.5C 24.1788,35.2852 25.1788,35.9519 25.5,37.5C 26.5,37.5 27.5,37.5 28.5,37.5C 28.2786,38.7348 27.6119,39.7348 26.5,40.5C 26.8627,41.1835 27.1961,41.8501 27.5,42.5C 25.6253,40.9219 24.2919,41.2552 23.5,43.5C 25.256,44.5521 25.9227,46.2188 25.5,48.5C 24.5084,48.3284 23.8417,48.6618 23.5,49.5C 22.5,49.5 21.5,49.5 20.5,49.5C 18.9192,47.8583 18.2525,45.8583 18.5,43.5C 7.12128,43.2946 1.95461,37.6279 3,26.5C 5.10742,21.1191 7.60742,15.9525 10.5,11C 9.42249,8.17831 8.08916,5.51164 6.5,3C 7.07071,1.40088 8.07071,0.234212 9.5,-0.5 Z"/></g>
<g><path style="opacity:1" fill="#2e3044" d="M 17.5,-0.5 C 18.8333,-0.5 20.1667,-0.5 21.5,-0.5C 21.8333,0.833333 22.1667,0.833333 22.5,-0.5C 25.1667,-0.5 27.8333,-0.5 30.5,-0.5C 30.2024,2.26462 29.2024,4.76462 27.5,7C 32.7247,10.3282 35.058,15.1615 34.5,21.5C 36.698,21.1201 38.3646,21.7868 39.5,23.5C 40.1475,25.4982 40.9808,27.4982 42,29.5C 42.8099,33.3575 42.6433,37.0242 41.5,40.5C 41.5,37.1667 41.5,33.8333 41.5,30.5C 40.5,30.5 39.5,30.5 38.5,30.5C 36.5,30.5 34.5,30.5 32.5,30.5C 32.5,32.1667 32.5,33.8333 32.5,35.5C 33.5,35.5 34.5,35.5 35.5,35.5C 35.1667,36.1667 34.8333,36.8333 34.5,37.5C 33.5084,37.3284 32.8417,37.6618 32.5,38.5C 31.2921,37.7659 29.9587,37.4326 28.5,37.5C 28.5,36.8333 28.5,36.1667 28.5,35.5C 29.2484,32.8185 30.2484,30.1519 31.5,27.5C 30.999,25.1643 29.999,23.1643 28.5,21.5C 27.6205,18.7378 26.4538,16.0711 25,13.5C 23.6439,12.6198 22.1439,12.2865 20.5,12.5C 18.369,11.6862 16.0356,11.1862 13.5,11C 15.5,10.6667 17.5,10.3333 19.5,10C 18.7476,9.32924 18.4142,8.4959 18.5,7.5C 20.5575,8.20193 22.5575,8.53527 24.5,8.5C 25.7515,6.99913 26.7515,5.33246 27.5,3.5C 24.2236,3.65755 20.8903,3.32422 17.5,2.5C 16.8669,2.12048 16.2003,1.78715 15.5,1.5C 16.2427,0.818153 16.9094,0.151487 17.5,-0.5 Z M 25.5,12.5 C 26.5417,11.2089 27.7083,11.2089 29,12.5C 30.3014,14.3646 30.6347,16.3646 30,18.5C 28.7225,16.2528 27.2225,14.2528 25.5,12.5 Z"/></g>
<g><path style="opacity:1" fill="#d4a751" d="M 20.5,12.5 C 22.1439,12.2865 23.6439,12.6198 25,13.5C 26.4538,16.0711 27.6205,18.7378 28.5,21.5C 29.4223,26.3242 29.4223,30.9908 28.5,35.5C 28.5,36.1667 28.5,36.8333 28.5,37.5C 27.5,37.5 26.5,37.5 25.5,37.5C 25.1788,35.9519 24.1788,35.2852 22.5,35.5C 22.7373,36.791 22.404,37.791 21.5,38.5C 20.5,37.1667 19.5,37.1667 18.5,38.5C 17.8333,38.5 17.1667,38.5 16.5,38.5C 8.57467,35.3106 6.07467,29.6439 9,21.5C 9.49351,23.1341 9.66018,24.8008 9.5,26.5C 10.675,26.719 11.675,26.3857 12.5,25.5C 13.4728,22.2211 14.9728,19.2211 17,16.5C 17.3333,17.1667 17.6667,17.8333 18,18.5C 18.2321,17.2625 18.7321,16.2625 19.5,15.5C 19.3505,16.552 19.5172,17.552 20,18.5C 20.4955,16.5273 20.6621,14.5273 20.5,12.5 Z"/></g>
<g><path style="opacity:1" fill="#f3e6a8" d="M 28.5,21.5 C 29.999,23.1643 30.999,25.1643 31.5,27.5C 30.2484,30.1519 29.2484,32.8185 28.5,35.5C 29.4223,30.9908 29.4223,26.3242 28.5,21.5 Z"/></g>
<g><path style="opacity:1" fill="#d3b878" d="M 39.5,23.5 C 39.5439,31.1755 38.8772,31.3422 37.5,24C 38.0944,23.5357 38.7611,23.369 39.5,23.5 Z"/></g>
<g><path style="opacity:1" fill="#d6c591" d="M 34.5,25.5 C 38.2965,26.9114 38.2965,27.9114 34.5,28.5C 34.5,27.5 34.5,26.5 34.5,25.5 Z"/></g>
<g><path style="opacity:1" fill="#cba455" d="M 38.5,30.5 C 39.5,30.5 40.5,30.5 41.5,30.5C 41.5,33.8333 41.5,37.1667 41.5,40.5C 39.8235,39.8166 39.1568,38.4832 39.5,36.5C 39.4828,34.4352 39.1495,32.4352 38.5,30.5 Z"/></g>
<g><path style="opacity:1" fill="#9b7537" d="M 19.5,15.5 C 18.7321,16.2625 18.2321,17.2625 18,18.5C 17.6667,17.8333 17.3333,17.1667 17,16.5C 14.9728,19.2211 13.4728,22.2211 12.5,25.5C 11.675,26.3857 10.675,26.719 9.5,26.5C 9.66018,24.8008 9.49351,23.1341 9,21.5C 6.07467,29.6439 8.57467,35.3106 16.5,38.5C 16.2089,39.6491 15.3756,40.3158 14,40.5C 10.5753,40.0806 7.90865,38.4139 6,35.5C 3.9128,27.7313 5.57946,20.7313 11,14.5C 11.3333,15.1667 11.6667,15.8333 12,16.5C 12.4186,15.3279 13.0853,14.3279 14,13.5C 14.1667,13.8333 14.3333,14.1667 14.5,14.5C 13.3595,16.0778 12.8595,17.7445 13,19.5C 14.5,17.1667 16,14.8333 17.5,12.5C 18.4252,13.3569 19.0919,14.3569 19.5,15.5 Z"/></g>
<g><path style="opacity:1" fill="#f4e6a6" d="M 38.5,30.5 C 39.1495,32.4352 39.4828,34.4352 39.5,36.5C 39.1667,36.5 38.8333,36.5 38.5,36.5C 37.779,34.6182 36.779,34.2848 35.5,35.5C 34.5,35.5 33.5,35.5 32.5,35.5C 32.5,33.8333 32.5,32.1667 32.5,30.5C 34.5,30.5 36.5,30.5 38.5,30.5 Z"/></g>
<g><path style="opacity:1" fill="#4a505e" d="M 35.5,35.5 C 36.779,34.2848 37.779,34.6182 38.5,36.5C 37.391,36.4431 36.391,36.1098 35.5,35.5 Z"/></g>
<g><path style="opacity:1" fill="#c3a361" d="M 25.5,37.5 C 25.6713,40.7973 25.0046,41.1306 23.5,38.5C 23.9569,37.7025 24.6236,37.3691 25.5,37.5 Z"/></g>
<g><path style="opacity:1" fill="#a38654" d="M 21.5,38.5 C 22.9887,42.3539 22.322,43.0206 19.5,40.5C 19.1667,39.8333 18.8333,39.1667 18.5,38.5C 19.5,37.1667 20.5,37.1667 21.5,38.5 Z"/></g>
<g><path style="opacity:1" fill="#c9af70" d="M 35.5,35.5 C 36.391,36.1098 37.391,36.4431 38.5,36.5C 38.0825,37.2216 37.4158,37.7216 36.5,38C 38.9915,39.2492 38.8249,40.4158 36,41.5C 35.79,39.9419 35.29,38.6085 34.5,37.5C 34.8333,36.8333 35.1667,36.1667 35.5,35.5 Z"/></g>
<g><path style="opacity:1" fill="#a69463" d="M 32.5,38.5 C 32.8417,37.6618 33.5084,37.3284 34.5,37.5C 34.6332,40.925 33.9665,41.2583 32.5,38.5 Z"/></g>
<g><path style="opacity:1" fill="#988863" d="M 28.5,37.5 C 29.9587,37.4326 31.2921,37.7659 32.5,38.5C 32.6162,41.9103 30.9496,43.2436 27.5,42.5C 27.1961,41.8501 26.8627,41.1835 26.5,40.5C 27.6119,39.7348 28.2786,38.7348 28.5,37.5 Z"/></g>
<g><path style="opacity:0.592" fill="#1f2739" d="M 38.5,36.5 C 38.8333,36.5 39.1667,36.5 39.5,36.5C 39.1568,38.4832 39.8235,39.8166 41.5,40.5C 37.5452,42.5746 33.5452,43.9079 29.5,44.5C 28.4777,44.1445 27.811,43.4778 27.5,42.5C 30.9496,43.2436 32.6162,41.9103 32.5,38.5C 33.9665,41.2583 34.6332,40.925 34.5,37.5C 35.29,38.6085 35.79,39.9419 36,41.5C 38.8249,40.4158 38.9915,39.2492 36.5,38C 37.4158,37.7216 38.0825,37.2216 38.5,36.5 Z"/></g>
<g><path style="opacity:1" fill="#b49459" d="M 19.5,40.5 C 19.3605,42.337 18.6939,42.6704 17.5,41.5C 17.9569,40.7025 18.6236,40.3691 19.5,40.5 Z"/></g>
<g><path style="opacity:0.42" fill="#121412" d="M 45.5,40.5 C 45.5,41.5 45.5,42.5 45.5,43.5C 43.4433,43.0433 43.4433,42.0433 45.5,40.5 Z"/></g>
<g><path style="opacity:1" fill="#ab8e5a" d="M 23.5,43.5 C 24.6772,45.1026 24.5106,46.436 23,47.5C 22.5348,46.0692 21.7014,44.9025 20.5,44C 21.448,43.5172 22.448,43.3505 23.5,43.5 Z"/></g>
<g><path style="opacity:0.706" fill="#121a2d" d="M 34.5,49.5 C 34.1667,49.5 33.8333,49.5 33.5,49.5C 32.1667,45.5 30.8333,45.5 29.5,49.5C 28.1667,49.5 26.8333,49.5 25.5,49.5C 25.5,49.1667 25.5,48.8333 25.5,48.5C 27.5061,47.4892 29.5061,46.4892 31.5,45.5C 33.9153,45.7189 34.9153,47.0523 34.5,49.5 Z"/></g>
<g><path style="opacity:1" fill="#7c6c55" d="M 33.5,49.5 C 32.1667,49.5 30.8333,49.5 29.5,49.5C 30.8333,45.5 32.1667,45.5 33.5,49.5 Z"/></g>
</svg>
